<svg width="178" height="29" viewBox="0 0 178 29" fill="none" xmlns="http://www.w3.org/2000/svg">
<path d="M4.57858 29C3.72009 29 2.95018 28.8576 2.26885 28.5728C1.58751 28.2745 1.04926 27.8677 0.654082 27.3524C0.258908 26.8235 0.0408801 26.22 0 25.542H1.92137C1.97587 26.098 2.23478 26.5523 2.69809 26.9048C3.17503 27.2574 3.79504 27.4337 4.55814 27.4337C5.26673 27.4337 5.82542 27.2778 6.23422 26.9659C6.64303 26.654 6.84743 26.2607 6.84743 25.7861C6.84743 25.2979 6.6294 24.9385 6.19334 24.708C5.75729 24.4639 5.08277 24.2266 4.16978 23.996C3.33855 23.7791 2.65721 23.5621 2.12577 23.3451C1.60795 23.1146 1.15827 22.7823 0.776723 22.3484C0.408801 21.9009 0.224841 21.3177 0.224841 20.599C0.224841 20.0295 0.395175 19.5074 0.735843 19.0327C1.07651 18.5581 1.56026 18.1852 2.18709 17.914C2.81392 17.6292 3.52932 17.4868 4.3333 17.4868C5.57333 17.4868 6.57489 17.7987 7.33799 18.4225C8.10108 19.0463 8.50989 19.9006 8.56439 20.9855H6.70435C6.66347 20.4024 6.425 19.9345 5.98894 19.582C5.56651 19.2294 4.99419 19.0531 4.27198 19.0531C3.60427 19.0531 3.07282 19.1955 2.67765 19.4802C2.28248 19.765 2.08489 20.1379 2.08489 20.599C2.08489 20.9652 2.20071 21.2703 2.43237 21.5144C2.67765 21.7449 2.97744 21.9348 3.33173 22.0839C3.69965 22.2195 4.20384 22.3755 4.8443 22.5518C5.64827 22.7688 6.30236 22.9857 6.80655 23.2027C7.31073 23.4061 7.73998 23.718 8.09427 24.1384C8.46219 24.5588 8.65297 25.108 8.66659 25.7861C8.66659 26.3963 8.49626 26.9455 8.15559 27.4337C7.81492 27.9219 7.33117 28.3084 6.70435 28.5932C6.09114 28.8644 5.38255 29 4.57858 29Z" fill="black"/>
<path d="M13.5612 19.1955V25.7657C13.5612 26.3082 13.677 26.6946 13.9087 26.9252C14.1403 27.1422 14.5423 27.2506 15.1146 27.2506H16.4841V28.8169H14.808C13.7724 28.8169 12.9957 28.5796 12.4779 28.105C11.9601 27.6303 11.7011 26.8506 11.7011 25.7657V19.1955H10.2499V17.6699H11.7011V14.8628H13.5612V17.6699H16.4841V19.1955H13.5612Z" fill="black"/>
<path d="M18.0428 23.2027C18.0428 22.0636 18.2745 21.0669 18.7378 20.2125C19.2011 19.3446 19.8348 18.6734 20.6387 18.1987C21.4563 17.7241 22.3625 17.4868 23.3573 17.4868C24.3384 17.4868 25.1901 17.697 25.9123 18.1174C26.6345 18.5378 27.1727 19.0666 27.527 19.704V17.6699H29.4075V28.8169H27.527V26.7421C27.1591 27.393 26.6072 27.9355 25.8714 28.3694C25.1492 28.7898 24.3043 29 23.3368 29C22.3421 29 21.4427 28.7559 20.6387 28.2677C19.8348 27.7795 19.2011 27.0947 18.7378 26.2132C18.2745 25.3318 18.0428 24.3283 18.0428 23.2027ZM27.527 23.2231C27.527 22.3823 27.3567 21.65 27.016 21.0262C26.6754 20.4024 26.2121 19.9278 25.6261 19.6023C25.0538 19.2633 24.4201 19.0938 23.7252 19.0938C23.0302 19.0938 22.3966 19.2565 21.8243 19.582C21.2519 19.9074 20.7954 20.382 20.4548 21.0058C20.1141 21.6296 19.9438 22.3619 19.9438 23.2027C19.9438 24.057 20.1141 24.8029 20.4548 25.4403C20.7954 26.0641 21.2519 26.5455 21.8243 26.8845C22.3966 27.21 23.0302 27.3727 23.7252 27.3727C24.4201 27.3727 25.0538 27.21 25.6261 26.8845C26.2121 26.5455 26.6754 26.0641 27.016 25.4403C27.3567 24.8029 27.527 24.0638 27.527 23.2231Z" fill="black"/>
<path d="M31.8559 23.2231C31.8559 22.0704 32.0875 21.0669 32.5508 20.2125C33.0141 19.3446 33.6546 18.6734 34.4722 18.1987C35.3034 17.7241 36.2505 17.4868 37.3134 17.4868C38.6897 17.4868 39.8207 17.819 40.7064 18.4835C41.6058 19.148 42.1985 20.0701 42.4847 21.2499H40.4816C40.2908 20.5719 39.9161 20.0362 39.3574 19.643C38.8123 19.2497 38.131 19.0531 37.3134 19.0531C36.2505 19.0531 35.392 19.4192 34.7379 20.1515C34.0838 20.8702 33.7568 21.8941 33.7568 23.2231C33.7568 24.5656 34.0838 25.603 34.7379 26.3353C35.392 27.0676 36.2505 27.4337 37.3134 27.4337C38.131 27.4337 38.8123 27.2439 39.3574 26.8642C39.9024 26.4845 40.2772 25.942 40.4816 25.2368H42.4847C42.1849 26.376 41.5853 27.2913 40.686 27.9829C39.7866 28.661 38.6624 29 37.3134 29C36.2505 29 35.3034 28.7627 34.4722 28.2881C33.6546 27.8134 33.0141 27.1422 32.5508 26.2743C32.0875 25.4064 31.8559 24.3893 31.8559 23.2231Z" fill="black"/>
<path d="M51.2212 28.8169L46.8266 23.8943V28.8169H44.9666V13.7643H46.8266V22.6128L51.1395 17.6699H53.7354L48.4618 23.2231L53.7558 28.8169H51.2212Z" fill="black"/>
<path d="M60.3712 28.9797C59.2538 28.9797 58.2454 28.7423 57.3461 28.2677C56.4603 27.7931 55.7586 27.115 55.2407 26.2336C54.7366 25.3521 54.4845 24.3215 54.4845 23.1417C54.4845 21.9754 54.7434 20.9516 55.2612 20.0701C55.779 19.1751 56.4876 18.4903 57.387 18.0157C58.2863 17.541 59.2947 17.3037 60.4121 17.3037C61.5295 17.3037 62.5379 17.541 63.4372 18.0157C64.3366 18.4903 65.0452 19.1751 65.563 20.0701C66.0808 20.9516 66.3397 21.9754 66.3397 23.1417C66.3397 24.3079 66.074 25.3386 65.5425 26.2336C65.0247 27.115 64.3093 27.7931 63.3963 28.2677C62.497 28.7423 61.4886 28.9797 60.3712 28.9797ZM60.3712 25.9691C61.0389 25.9691 61.6044 25.725 62.0677 25.2368C62.5447 24.7487 62.7831 24.0503 62.7831 23.1417C62.7831 22.2331 62.5515 21.5347 62.0882 21.0465C61.6385 20.5583 61.0798 20.3142 60.4121 20.3142C59.7307 20.3142 59.1652 20.5583 58.7156 21.0465C58.2659 21.5212 58.041 22.2195 58.041 23.1417C58.041 24.0503 58.2591 24.7487 58.6951 25.2368C59.1448 25.725 59.7035 25.9691 60.3712 25.9691Z" fill="black"/>
<path d="M73.3245 25.5623L75.7977 17.4664H79.5178L75.4707 28.8169H71.1578L67.1107 17.4664H70.8512L73.3245 25.5623Z" fill="black"/>
<path d="M91.7405 22.9586C91.7405 23.2841 91.7201 23.6231 91.6792 23.9757H83.7689C83.8234 24.6809 84.0482 25.2233 84.4434 25.603C84.8522 25.9691 85.3496 26.1522 85.9355 26.1522C86.8076 26.1522 87.414 25.7861 87.7547 25.0538H91.4748C91.284 25.7996 90.9365 26.4709 90.4323 27.0676C89.9418 27.6643 89.3218 28.1321 88.5723 28.4711C87.8228 28.8101 86.9848 28.9797 86.0582 28.9797C84.9408 28.9797 83.946 28.7423 83.0739 28.2677C82.2018 27.7931 81.5205 27.115 81.0299 26.2336C80.5393 25.3521 80.294 24.3215 80.294 23.1417C80.294 21.9619 80.5325 20.9313 81.0095 20.0498C81.5 19.1683 82.1813 18.4903 83.0535 18.0157C83.9256 17.541 84.9271 17.3037 86.0582 17.3037C87.1619 17.3037 88.143 17.5343 89.0015 17.9953C89.86 18.4564 90.5277 19.1141 91.0047 19.9684C91.4952 20.8228 91.7405 21.8195 91.7405 22.9586ZM88.1635 22.0433C88.1635 21.4466 87.9591 20.9719 87.5503 20.6194C87.1415 20.2668 86.6305 20.0905 86.0173 20.0905C85.4313 20.0905 84.9339 20.26 84.5251 20.599C84.13 20.938 83.8847 21.4195 83.7893 22.0433H88.1635Z" fill="black"/>
<path d="M97.0797 19.3582C97.4885 18.7344 97.9995 18.2462 98.6127 17.8936C99.2259 17.5275 99.9072 17.3444 100.657 17.3444V21.0262H99.696C98.8239 21.0262 98.1698 21.216 97.7337 21.5957C97.2977 21.9619 97.0797 22.6128 97.0797 23.5485V28.8169H93.5844V17.4664H97.0797V19.3582Z" fill="black"/>
<path d="M108.051 20.3549H106.17V28.8169H102.675V20.3549H101.408V17.4664H102.675V17.141C102.675 15.7442 103.077 14.6865 103.881 13.9677C104.685 13.2354 105.863 12.8693 107.417 12.8693C107.676 12.8693 107.867 12.8761 107.989 12.8896V15.8391C107.322 15.7985 106.851 15.8934 106.579 16.1239C106.306 16.3545 106.17 16.7681 106.17 17.3647V17.4664H108.051V20.3549Z" fill="black"/>
<path d="M113.188 13.7643V28.8169H109.693V13.7643H113.188Z" fill="black"/>
<path d="M120.913 28.9797C119.796 28.9797 118.787 28.7423 117.888 28.2677C117.002 27.7931 116.3 27.115 115.783 26.2336C115.278 25.3521 115.026 24.3215 115.026 23.1417C115.026 21.9754 115.285 20.9516 115.803 20.0701C116.321 19.1751 117.029 18.4903 117.929 18.0157C118.828 17.541 119.836 17.3037 120.954 17.3037C122.071 17.3037 123.08 17.541 123.979 18.0157C124.878 18.4903 125.587 19.1751 126.105 20.0701C126.623 20.9516 126.881 21.9754 126.881 23.1417C126.881 24.3079 126.616 25.3386 126.084 26.2336C125.566 27.115 124.851 27.7931 123.938 28.2677C123.039 28.7423 122.03 28.9797 120.913 28.9797ZM120.913 25.9691C121.581 25.9691 122.146 25.725 122.609 25.2368C123.086 24.7487 123.325 24.0503 123.325 23.1417C123.325 22.2331 123.093 21.5347 122.63 21.0465C122.18 20.5583 121.622 20.3142 120.954 20.3142C120.272 20.3142 119.707 20.5583 119.257 21.0465C118.808 21.5212 118.583 22.2195 118.583 23.1417C118.583 24.0503 118.801 24.7487 119.237 25.2368C119.687 25.725 120.245 25.9691 120.913 25.9691Z" fill="black"/>
<path d="M145.108 17.4664L142.022 28.8169H138.159L136.36 21.4534L134.5 28.8169H130.657L127.55 17.4664H131.045L132.66 25.5827L134.582 17.4664H138.281L140.223 25.542L141.817 17.4664H145.108Z" fill="black"/>
<path d="M155.747 0H159.153V16.9511H155.747V0Z" fill="#F2740D"/>
<path d="M167.67 6.78045H171.077V23.7316H167.67V6.78045Z" fill="#F2740D"/>
<path d="M155.747 6.78045V10.1707H148.933V6.78045L155.747 6.78045Z" fill="#F2740D"/>
<path d="M165.967 6.78045V10.1707H159.153V6.78045L165.967 6.78045Z" fill="#F2740D"/>
<path d="M167.67 13.5609V16.9511H160.857V13.5609H167.67Z" fill="#F2740D"/>
<path d="M177.89 13.5609V16.9511H171.077V13.5609H177.89Z" fill="#F2740D"/>
<path d="M148.933 25.4267H177.89V28.8169H148.933V25.4267Z" fill="#BCBBBB"/>
<path d="M174 19.3582H177.89V25.4267H174V19.3582Z" fill="#BCBBBB"/>
<path d="M148.933 11.8658H152.34V25.4267H148.933V11.8658Z" fill="#BCBBBB"/>
</svg>
