<svg width="30" height="30" viewBox="0 0 30 30" fill="none" xmlns="http://www.w3.org/2000/svg">
<path d="M29.3877 14.6939C29.3877 6.59755 22.7902 0 14.6939 0C6.59755 0 0 6.59755 0 14.6939C0 18.9551 1.83673 22.7902 4.74612 25.4792C4.74612 25.4939 4.74612 25.4939 4.73143 25.5086C4.87837 25.6555 5.05469 25.7731 5.20163 25.9053C5.28979 25.9788 5.36326 26.0522 5.45143 26.111C5.71592 26.3314 6.00979 26.5371 6.28898 26.7429C6.39184 26.8163 6.48 26.8751 6.58286 26.9486C6.86204 27.1396 7.15592 27.3159 7.46449 27.4775C7.56735 27.5363 7.6849 27.6098 7.78775 27.6686C8.08163 27.8302 8.3902 27.9771 8.71347 28.1094C8.83102 28.1682 8.94857 28.2269 9.06612 28.271C9.38939 28.4033 9.71265 28.5208 10.0359 28.6237C10.1535 28.6677 10.271 28.7118 10.3886 28.7412C10.7412 28.8441 11.0939 28.9322 11.4465 29.0204C11.5494 29.0498 11.6522 29.0792 11.7698 29.0939C12.1812 29.182 12.5926 29.2408 13.0188 29.2849C13.0775 29.2849 13.1363 29.2996 13.1951 29.3143C13.6947 29.3584 14.1943 29.3877 14.6939 29.3877C15.1935 29.3877 15.6931 29.3584 16.178 29.3143C16.2367 29.3143 16.2955 29.2996 16.3543 29.2849C16.7804 29.2408 17.1918 29.182 17.6033 29.0939C17.7061 29.0792 17.809 29.0351 17.9265 29.0204C18.2792 28.9322 18.6465 28.8588 18.9845 28.7412C19.102 28.6971 19.2196 28.6531 19.3371 28.6237C19.6604 28.5061 19.9984 28.4033 20.3069 28.271C20.4245 28.2269 20.542 28.1682 20.6596 28.1094C20.9682 27.9771 21.2767 27.8302 21.5853 27.6686C21.7029 27.6098 21.8057 27.5363 21.9086 27.4775C22.2024 27.3012 22.4963 27.1396 22.7902 26.9486C22.8931 26.8898 22.9812 26.8163 23.0841 26.7429C23.378 26.5371 23.6571 26.3314 23.9216 26.111C24.0098 26.0375 24.0833 25.9641 24.1714 25.9053C24.3331 25.7731 24.4947 25.6408 24.6416 25.5086C24.6416 25.4939 24.6416 25.4939 24.6269 25.4792C27.551 22.7902 29.3877 18.9551 29.3877 14.6939ZM21.9526 21.9967C17.9706 19.3224 11.4465 19.3224 7.4351 21.9967C6.78857 22.4229 6.25959 22.9224 5.81877 23.4661C3.58531 21.2033 2.20408 18.1029 2.20408 14.6939C2.20408 7.80245 7.80245 2.20408 14.6939 2.20408C21.5853 2.20408 27.1837 7.80245 27.1837 14.6939C27.1837 18.1029 25.8024 21.2033 23.569 23.4661C23.1429 22.9224 22.5992 22.4229 21.9526 21.9967Z" fill="#313539"/>
<path d="M14.6939 7.24362C11.6523 7.24362 9.18369 9.71219 9.18369 12.7538C9.18369 15.7367 11.52 18.1612 14.6204 18.2493H14.7527H14.8555H14.8849C17.8531 18.1465 20.1894 15.7367 20.2041 12.7538C20.2041 9.71219 17.7355 7.24362 14.6939 7.24362Z" fill="#313539"/>
</svg>
